<?xml version="1.0" standalone="no"?>
<!DOCTYPE svg PUBLIC "-//W3C//DTD SVG 20010904//EN"
 "http://www.w3.org/TR/2001/REC-SVG-20010904/DTD/svg10.dtd">
<svg version="1.0" xmlns="http://www.w3.org/2000/svg"
 width="1080.000000pt" height="1080.000000pt" viewBox="0 0 1080.000000 1080.000000"
 preserveAspectRatio="xMidYMid meet">

<g transform="translate(0.000000,1080.000000) scale(0.100000,-0.100000)"
fill="#093fb3" stroke="none">
<path d="M5070 8813 c-190 -15 -405 -74 -955 -261 -1221 -416 -1475 -515
-1692 -658 -174 -116 -253 -255 -292 -519 -32 -219 -36 -369 -36 -1315 0
-1043 0 -1044 62 -1350 209 -1037 910 -1883 2023 -2441 421 -211 603 -268 908
-285 l122 -7 0 3422 0 3421 -47 -2 c-27 -1 -68 -3 -93 -5z m-300 -3418 l0
-2874 -72 30 c-40 17 -156 71 -258 120 -748 364 -1295 872 -1595 1483 -143
292 -219 554 -266 916 -27 211 -19 1890 11 2150 17 147 39 230 68 257 85 79
383 202 1011 420 260 90 1093 373 1099 373 1 0 2 -1294 2 -2875z"/>
<path d="M5908 8484 c-28 -14 -68 -79 -68 -108 0 -9 12 -51 26 -93 72 -212 25
-396 -129 -509 -56 -42 -66 -45 -102 -40 -22 3 -82 9 -132 12 l-93 7 0 -2493
0 -2493 83 7 c278 24 501 101 731 253 126 83 342 296 439 433 56 79 173 299
228 427 l14 32 319 -287 320 -287 106 -355 106 -355 182 -3 c100 -1 182 -1
182 2 0 4 -252 843 -271 904 -8 24 -111 122 -428 406 l-418 374 10 63 c6 35
11 167 11 292 l1 228 25 -5 c14 -3 126 -17 250 -31 124 -14 239 -32 255 -39
17 -7 232 -136 479 -285 247 -149 452 -271 455 -271 3 0 38 44 76 97 39 52 75
101 80 107 24 26 67 88 64 90 -5 4 -1042 628 -1049 632 -3 1 -158 21 -345 43
-187 23 -349 43 -360 46 -15 3 -27 26 -49 90 -32 93 -116 273 -160 344 -16 25
-24 46 -18 50 5 3 199 145 430 315 l421 309 16 61 c9 33 99 365 199 736 l183
675 -164 53 c-91 30 -166 52 -167 50 -2 -1 -85 -304 -184 -672 -132 -488 -186
-672 -199 -681 -10 -7 -187 -137 -392 -288 l-375 -275 -92 86 -92 87 34 45
c267 351 237 808 -73 1131 l-63 66 35 83 c77 180 99 365 61 509 -42 156 -190
366 -298 422 -44 23 -64 23 -100 3z"/>
</g>
</svg>
